<svg width="50" height="50" viewBox="0 0 400 400" fill="none" xmlns="http://www.w3.org/2000/svg">
<path d="M112.557 340.262C137.876 355.988 167.627 365 199.539 365C290.804 365 365 290.758 365 199.5C365 108.242 290.804 34 199.539 34H199.461C108.197 34 34 108.221 34 199.5C34 233.829 44.499 265.801 62.513 292.26L44.7434 345.23L38.4645 363.947L57.2691 357.936L112.557 340.262Z" fill="#25D366" stroke="white" stroke-width="20"/>
<path d="M289.729 263.945C286.001 274.572 271.206 283.387 259.404 285.961C251.33 287.696 240.784 289.081 205.282 274.221C159.872 255.228 130.629 208.641 128.35 205.619C126.167 202.596 110 180.951 110 158.564C110 136.178 121.261 125.277 125.8 120.597C129.528 116.755 135.689 115 141.6 115C143.512 115 145.231 115.098 146.776 115.176C151.315 115.371 153.595 115.644 156.589 122.878C160.316 131.946 169.395 154.332 170.476 156.634C171.577 158.935 172.678 162.055 171.133 165.077C169.684 168.197 168.41 169.582 166.13 172.234C163.851 174.886 161.688 176.914 159.409 179.761C157.323 182.238 154.966 184.89 157.593 189.472C160.22 193.957 169.298 208.914 182.664 220.927C199.913 236.429 213.897 241.383 218.9 243.489C222.628 245.049 227.07 244.678 229.794 241.753C233.251 237.989 237.52 231.749 241.866 225.607C244.956 221.2 248.858 220.654 252.953 222.214C257.125 223.676 279.202 234.694 283.741 236.975C288.28 239.276 291.274 240.369 292.375 242.299C293.457 244.23 293.457 253.297 289.729 263.945Z" fill="#FAFAFA"/>
</svg>
