<svg width="256" height="256" viewBox="0 0 256 256" fill="none" xmlns="http://www.w3.org/2000/svg">
<rect width="256" height="256" fill="#0E0E0E"/>
<g clip-path="url(#clip0_4_25)">
<path d="M127.917 36C127.868 36.049 127.77 36.049 127.623 36.049C78.003 36.049 37.6504 76.4017 37.6504 126.021C37.6504 146.271 44.5638 165.933 57.2138 181.77L44.1225 212.169C43.0438 214.67 44.2206 217.562 46.6721 218.592C47.5547 218.984 48.5353 219.082 49.4669 218.935L97.4684 210.502C107.079 213.983 117.179 215.748 127.377 215.699C176.997 215.699 217.35 175.347 217.35 125.727C217.448 76.2546 177.389 36.049 127.917 36ZM127.426 205.942C117.963 205.942 108.598 204.226 99.7239 200.892C98.8903 200.549 98.0078 200.5 97.1252 200.647L56.7235 207.707L67.4123 182.848C68.1478 181.132 67.8536 179.122 66.6278 177.7C60.8421 170.983 56.2332 163.334 52.9971 155.048C49.3688 145.781 47.5057 135.926 47.5057 125.972C47.5057 81.7461 83.4945 45.8062 127.672 45.8062C171.751 45.7082 207.543 81.3538 207.592 125.433C207.592 125.531 207.592 125.629 207.592 125.727C207.592 170.002 171.604 205.942 127.426 205.942Z" fill="#25D366"/>
<path d="M123.602 107.929H97.1253C94.4286 107.929 92.2222 110.135 92.2222 112.832C92.2222 115.529 94.4286 117.735 97.1253 117.735H123.602C126.299 117.735 128.505 115.529 128.505 112.832C128.505 110.135 126.299 107.929 123.602 107.929Z" fill="white"/>
<path d="M157.924 132.444H97.1253C94.4286 132.444 92.2222 134.651 92.2222 137.347C92.2222 140.044 94.4286 142.251 97.1253 142.251H157.924C160.621 142.251 162.827 140.044 162.827 137.347C162.827 134.651 160.621 132.444 157.924 132.444Z" fill="white"/>
</g>
<defs>
<clipPath id="clip0_4_25">
<rect width="183" height="183" fill="white" transform="translate(36 36)"/>
</clipPath>
</defs>
</svg>
